<?xml version="1.0" encoding="UTF-8" standalone="no"?>
<svg
   xmlns:dc="http://purl.org/dc/elements/1.1/"
   xmlns:cc="http://creativecommons.org/ns#"
   xmlns:rdf="http://www.w3.org/1999/02/22-rdf-syntax-ns#"
   xmlns:svg="http://www.w3.org/2000/svg"
   xmlns="http://www.w3.org/2000/svg"
   xmlns:sodipodi="http://sodipodi.sourceforge.net/DTD/sodipodi-0.dtd"
   xmlns:inkscape="http://www.inkscape.org/namespaces/inkscape"
   sodipodi:docname="Admin Icon.svg"
   inkscape:version="1.0 (4035a4fb49, 2020-05-01)"
   id="svg2115"
   version="1.1"
   viewBox="0 0 210 297"
   height="297mm"
   width="210mm">
  <defs
     id="defs2109" />
  <sodipodi:namedview
     inkscape:window-maximized="1"
     inkscape:window-y="-9"
     inkscape:window-x="2391"
     inkscape:window-height="1271"
     inkscape:window-width="2400"
     showgrid="false"
     inkscape:document-rotation="0"
     inkscape:current-layer="layer1"
     inkscape:document-units="mm"
     inkscape:cy="533.50448"
     inkscape:cx="343.09926"
     inkscape:zoom="0.98994949"
     inkscape:pageshadow="2"
     inkscape:pageopacity="0.0"
     borderopacity="1.0"
     bordercolor="#666666"
     pagecolor="#ffffff"
     id="base" />
  <metadata
     id="metadata2112">
    <rdf:RDF>
      <cc:Work
         rdf:about="">
        <dc:format>image/svg+xml</dc:format>
        <dc:type
           rdf:resource="http://purl.org/dc/dcmitype/StillImage" />
        <dc:title></dc:title>
      </cc:Work>
    </rdf:RDF>
  </metadata>
  <g
     id="layer1"
     inkscape:groupmode="layer"
     inkscape:label="Layer 1">
    <g
       transform="rotate(-30.19772,102.15833,149.48012)"
       id="g2700">
      <path
         id="path2678"
         style="fill:#000000;stroke-width:1.3;paint-order:markers stroke fill"
         d="m 35.995064,124.28946 a 25.324406,25.324406 0 0 0 -20.485055,10.43451 23.812502,17.953869 0 0 1 12.925308,-2.87528 23.812502,17.953869 0 0 1 23.8125,17.95394 23.812502,17.953869 0 0 1 -23.8125,17.95395 23.812502,17.953869 0 0 1 -12.48451,-2.66547 25.324406,25.324406 0 0 0 20.044257,9.84694 25.324406,25.324406 0 0 0 25.324035,-25.32455 25.324406,25.324406 0 0 0 -25.324035,-25.32404 z" />
      <rect
         style="fill:#000000;stroke-width:1.3;paint-order:markers stroke fill"
         id="rect2693"
         width="94.346146"
         height="21.648832"
         x="53.453907"
         y="138.71288" />
      <path
         d="m 168.3216,124.02219 a 25.324406,25.324406 0 0 1 20.48506,10.43451 23.812502,17.953869 0 0 0 -12.92531,-2.87528 23.812502,17.953869 0 0 0 -23.8125,17.95395 23.812502,17.953869 0 0 0 23.8125,17.95394 23.812502,17.953869 0 0 0 12.48451,-2.66547 25.324406,25.324406 0 0 1 -20.04426,9.84694 25.324406,25.324406 0 0 1 -25.32403,-25.32455 25.324406,25.324406 0 0 1 25.32403,-25.32404 z"
         style="fill:#000000;stroke-width:1.3;paint-order:markers stroke fill"
         id="path2695" />
    </g>
  </g>
</svg>
