<?xml version="1.0" encoding="UTF-8" standalone="no"?>
<svg
   xmlns:dc="http://purl.org/dc/elements/1.1/"
   xmlns:cc="http://creativecommons.org/ns#"
   xmlns:rdf="http://www.w3.org/1999/02/22-rdf-syntax-ns#"
   xmlns:svg="http://www.w3.org/2000/svg"
   xmlns="http://www.w3.org/2000/svg"
   xmlns:sodipodi="http://sodipodi.sourceforge.net/DTD/sodipodi-0.dtd"
   xmlns:inkscape="http://www.inkscape.org/namespaces/inkscape"
   sodipodi:docname="Profile Logo.svg"
   inkscape:version="1.0 (4035a4fb49, 2020-05-01)"
   id="svg8"
   version="1.1"
   viewBox="0 0 210 297"
   height="297mm"
   width="210mm">
  <defs
     id="defs2" />
  <sodipodi:namedview
     inkscape:window-maximized="1"
     inkscape:window-y="-9"
     inkscape:window-x="2391"
     inkscape:window-height="1271"
     inkscape:window-width="2400"
     showgrid="false"
     inkscape:document-rotation="0"
     inkscape:current-layer="layer1"
     inkscape:document-units="mm"
     inkscape:cy="531.48681"
     inkscape:cx="466.87188"
     inkscape:zoom="0.7"
     inkscape:pageshadow="2"
     inkscape:pageopacity="0.0"
     borderopacity="1.0"
     bordercolor="#666666"
     pagecolor="#ffffff"
     id="base" />
  <metadata
     id="metadata5">
    <rdf:RDF>
      <cc:Work
         rdf:about="">
        <dc:format>image/svg+xml</dc:format>
        <dc:type
           rdf:resource="http://purl.org/dc/dcmitype/StillImage" />
        <dc:title></dc:title>
      </cc:Work>
    </rdf:RDF>
  </metadata>
  <g
     id="layer1"
     inkscape:groupmode="layer"
     inkscape:label="Layer 1">
    <path
       transform="scale(0.26458333)"
       d="M 365.71289 270 A 175.71433 175.71433 0 0 0 190 445.71484 A 175.71433 175.71433 0 0 0 255.87305 582.86523 A 210 451.42789 0 0 0 157.14258 965.71484 L 577.14258 965.71484 A 210 451.42789 0 0 0 477.33203 581.42383 A 175.71433 175.71433 0 0 0 541.42773 445.71484 A 175.71433 175.71433 0 0 0 365.71289 270 z M 365.2793 286.50977 A 156.84567 159.20425 0 0 1 365.71289 286.50977 A 156.84567 159.20425 0 0 1 522.55859 445.71484 A 156.84567 159.20425 0 0 1 365.71289 604.91992 A 156.84567 159.20425 0 0 1 208.86719 445.71484 A 156.84567 159.20425 0 0 1 365.2793 286.50977 z M 455.4375 596.79297 A 186.42857 399.1831 0 0 1 554.28516 949.18359 L 181.42969 949.18359 A 186.42857 399.1831 0 0 1 278.83789 598.44922 A 175.71433 175.71433 0 0 0 365.71289 621.42969 A 175.71433 175.71433 0 0 0 455.4375 596.79297 z "
       style="fill:#000000;stroke-width:4.91339;paint-order:markers stroke fill"
       id="path837" />
  </g>
</svg>
