<?xml version="1.0" encoding="UTF-8" standalone="no"?>
<svg
   xmlns:dc="http://purl.org/dc/elements/1.1/"
   xmlns:cc="http://creativecommons.org/ns#"
   xmlns:rdf="http://www.w3.org/1999/02/22-rdf-syntax-ns#"
   xmlns:svg="http://www.w3.org/2000/svg"
   xmlns="http://www.w3.org/2000/svg"
   xmlns:sodipodi="http://sodipodi.sourceforge.net/DTD/sodipodi-0.dtd"
   xmlns:inkscape="http://www.inkscape.org/namespaces/inkscape"
   width="32"
   height="32"
   viewBox="0 0 8.4666667 8.4666667"
   version="1.1"
   id="svg2115"
   inkscape:version="1.0 (4035a4fb49, 2020-05-01)"
   sodipodi:docname="Admin Icon.svg">
  <defs
     id="defs2109" />
  <sodipodi:namedview
     inkscape:pagecheckerboard="true"
     units="px"
     id="base"
     pagecolor="#000000"
     bordercolor="#666666"
     borderopacity="1.0"
     inkscape:pageopacity="0"
     inkscape:pageshadow="2"
     inkscape:zoom="11.2"
     inkscape:cx="33.455463"
     inkscape:cy="16.162092"
     inkscape:document-units="mm"
     inkscape:current-layer="layer1"
     inkscape:document-rotation="0"
     showgrid="false"
     inkscape:window-width="2400"
     inkscape:window-height="1271"
     inkscape:window-x="2391"
     inkscape:window-y="-9"
     inkscape:window-maximized="1" />
  <metadata
     id="metadata2112">
    <rdf:RDF>
      <cc:Work
         rdf:about="">
        <dc:format>image/svg+xml</dc:format>
        <dc:type
           rdf:resource="http://purl.org/dc/dcmitype/StillImage" />
        <dc:title></dc:title>
      </cc:Work>
    </rdf:RDF>
  </metadata>
  <g
     inkscape:label="Layer 1"
     inkscape:groupmode="layer"
     id="layer1">
    <g
       style="stroke-width:18.9118"
       id="g2700"
       transform="matrix(0.04453427,-0.02729346,0.02591719,0.04689916,-4.1881169,0.01110312)">
      <path
         d="m 35.995064,124.28946 a 25.324406,25.324406 0 0 0 -20.485055,10.43451 23.812502,17.953869 0 0 1 12.925308,-2.87528 23.812502,17.953869 0 0 1 23.8125,17.95394 23.812502,17.953869 0 0 1 -23.8125,17.95395 23.812502,17.953869 0 0 1 -12.48451,-2.66547 25.324406,25.324406 0 0 0 20.044257,9.84694 25.324406,25.324406 0 0 0 25.324035,-25.32455 25.324406,25.324406 0 0 0 -25.324035,-25.32404 z"
         style="stroke-width:4.91338583;paint-order:markers stroke fill;fill:#ffffff"
         id="path2678" />
      <rect
         y="138.71288"
         x="53.453907"
         height="21.648832"
         width="94.346146"
         id="rect2693"
         style="stroke-width:4.91338583;paint-order:markers stroke fill;fill:#ffffff" />
      <path
         id="path2695"
         style="stroke-width:4.91338583;paint-order:markers stroke fill;fill:#ffffff"
         d="m 168.3216,124.02219 a 25.324406,25.324406 0 0 1 20.48506,10.43451 23.812502,17.953869 0 0 0 -12.92531,-2.87528 23.812502,17.953869 0 0 0 -23.8125,17.95395 23.812502,17.953869 0 0 0 23.8125,17.95394 23.812502,17.953869 0 0 0 12.48451,-2.66547 25.324406,25.324406 0 0 1 -20.04426,9.84694 25.324406,25.324406 0 0 1 -25.32403,-25.32455 25.324406,25.324406 0 0 1 25.32403,-25.32404 z" />
    </g>
    <path
       transform="scale(0.26458333)"
       id="path11"
       d="M 4.324133,27.983513 C 4.2199359,27.967257 3.9073064,27.893831 3.6294008,27.820345 L 3.124118,27.686733 3.5343709,27.607585 C 5.2637273,27.273954 6.8346743,26.072303 7.5776072,24.514829 7.9017396,23.835321 8.0103969,23.370491 8.009314,22.668004 8.0070006,21.167206 7.1527205,20.104732 5.6397425,19.720951 5.1541114,19.597765 4.2788082,19.600392 3.6616144,19.726885 2.4653154,19.972069 1.12836,20.783495 0.38624389,21.714775 0.22057835,21.922668 0.07593261,22.066255 0.06480893,22.033857 0.0340607,21.944301 0.22438726,21.24168 0.39292442,20.822565 0.65651752,20.167068 0.9502272,19.741576 1.5639735,19.126089 2.2449783,18.443153 2.8256798,18.093237 3.6771707,17.85273 c 1.220266,-0.34467 2.8043635,-0.08074 3.8254795,0.637371 l 0.1628663,0.114538 7.2803165,-4.461468 7.280318,-4.4614691 0.03567,-0.7391463 c 0.0403,-0.8350312 0.159918,-1.3509461 0.469287,-2.02399 0.984757,-2.1423725 3.266047,-3.3137892 5.443714,-2.7952865 0.677512,0.1613157 0.800771,0.2252765 0.54517,0.2828961 -1.376049,0.3101991 -2.328948,0.8100563 -3.189151,1.672916 -1.21616,1.2199148 -1.756409,2.8094052 -1.407422,4.1408388 0.465678,1.776628 2.48797,2.651803 4.659828,2.016606 1.025716,-0.299987 1.815385,-0.782221 2.614683,-1.596731 0.286024,-0.291468 0.520107,-0.489345 0.520183,-0.439729 3.09e-4,0.200542 -0.2783,0.984591 -0.508188,1.430123 -0.603855,1.170293 -1.617736,2.034299 -2.895073,2.467119 -0.623206,0.21117 -1.76599,0.248956 -2.436274,0.08055 C 25.563959,14.04858 24.915302,13.7758 24.56473,13.541255 l -0.192953,-0.129094 -7.281819,4.462262 -7.2818183,4.462262 -0.037631,0.677036 C 9.7225017,23.877437 9.585682,24.429508 9.2403058,25.153103 8.6027984,26.48874 7.3958716,27.507253 6.0285822,27.863442 5.6354664,27.965852 4.654069,28.034987 4.324133,27.983513 Z"
       style="fill:#ffffff;stroke-width:4.91339;paint-order:markers stroke fill" />
  </g>
</svg>
