<?xml version="1.0" encoding="UTF-8" standalone="no"?>
<svg
   xmlns:osb="http://www.openswatchbook.org/uri/2009/osb"
   xmlns:dc="http://purl.org/dc/elements/1.1/"
   xmlns:cc="http://creativecommons.org/ns#"
   xmlns:rdf="http://www.w3.org/1999/02/22-rdf-syntax-ns#"
   xmlns:svg="http://www.w3.org/2000/svg"
   xmlns="http://www.w3.org/2000/svg"
   xmlns:sodipodi="http://sodipodi.sourceforge.net/DTD/sodipodi-0.dtd"
   xmlns:inkscape="http://www.inkscape.org/namespaces/inkscape"
   sodipodi:docname="Logout Icon.svg"
   inkscape:version="1.0 (4035a4fb49, 2020-05-01)"
   id="svg1499"
   version="1.1"
   viewBox="0 0 8.4666667 8.4666667"
   height="32"
   width="32">
  <defs
     id="defs1493">
    <linearGradient
       osb:paint="solid"
       id="linearGradient2074">
      <stop
         id="stop2072"
         offset="0"
         style="stop-color:#000000;stop-opacity:1;" />
    </linearGradient>
  </defs>
  <sodipodi:namedview
     inkscape:pagecheckerboard="true"
     units="px"
     inkscape:window-maximized="1"
     inkscape:window-y="-9"
     inkscape:window-x="2391"
     inkscape:window-height="1271"
     inkscape:window-width="2400"
     showgrid="false"
     inkscape:document-rotation="0"
     inkscape:current-layer="layer1"
     inkscape:document-units="mm"
     inkscape:cy="15.470527"
     inkscape:cx="28.596317"
     inkscape:zoom="22.4"
     inkscape:pageshadow="2"
     inkscape:pageopacity="0.0"
     borderopacity="1.0"
     bordercolor="#666666"
     pagecolor="#ffffff"
     id="base" />
  <metadata
     id="metadata1496">
    <rdf:RDF>
      <cc:Work
         rdf:about="">
        <dc:format>image/svg+xml</dc:format>
        <dc:type
           rdf:resource="http://purl.org/dc/dcmitype/StillImage" />
        <dc:title></dc:title>
      </cc:Work>
    </rdf:RDF>
  </metadata>
  <g
     id="layer1"
     inkscape:groupmode="layer"
     inkscape:label="Layer 1">
    <g
       style="stroke-width:14.7664"
       transform="matrix(0.04972687,0.04597157,-0.04597157,0.04972687,5.6343079,-8.6870149)"
       id="g856">
      <path
         transform="scale(0.26458333)"
         d="m 259.55273,490.93359 a 84.852813,84.852813 0 0 0 -84.79687,84.85352 84.852813,84.852813 0 0 0 84.85352,84.85351 84.852813,84.852813 0 0 0 84.85351,-84.85351 84.852813,84.852813 0 0 0 -84.85351,-84.85352 84.852813,84.852813 0 0 0 -0.0566,0 z m 0.91797,32.73633 a 51.256263,51.256263 0 0 1 51.25586,51.25586 51.256263,51.256263 0 0 1 -51.25586,51.25586 51.256263,51.256263 0 0 1 -51.25586,-51.25586 51.256263,51.256263 0 0 1 51.25586,-51.25586 z"
         style="fill:#000000;fill-opacity:1;fill-rule:nonzero;stroke-width:72.5533;stroke-miterlimit:4;stroke-dasharray:none;paint-order:markers stroke fill"
         id="path2082" />
      <rect
         style="fill:#000000;fill-opacity:1;fill-rule:nonzero;stroke-width:19.1964;stroke-miterlimit:4;stroke-dasharray:none;paint-order:markers stroke fill"
         id="rect2088"
         width="88.806366"
         height="10.423511"
         x="89.996948"
         y="145.12735" />
      <ellipse
         style="fill:#000000;fill-opacity:1;fill-rule:nonzero;stroke-width:19.1964;stroke-miterlimit:4;stroke-dasharray:none;paint-order:markers stroke fill"
         id="path2090"
         cx="178.06833"
         cy="150.3391"
         rx="5.4790254"
         ry="5.2117553" />
      <rect
         style="fill:#000000;fill-opacity:1;fill-rule:nonzero;stroke-width:19.1964;stroke-miterlimit:4;stroke-dasharray:none;paint-order:markers stroke fill"
         id="rect2092"
         width="6.2366071"
         height="19.166079"
         x="169.14433"
         y="153.08035" />
      <rect
         y="153.26933"
         x="160.45088"
         height="18.898809"
         width="6.2366071"
         id="rect2096"
         style="fill:#000000;fill-opacity:1;fill-rule:nonzero;stroke-width:19.1964;stroke-miterlimit:4;stroke-dasharray:none;paint-order:markers stroke fill" />
      <rect
         style="fill:#000000;fill-opacity:1;fill-rule:nonzero;stroke-width:19.1964;stroke-miterlimit:4;stroke-dasharray:none;paint-order:markers stroke fill"
         id="rect2098"
         width="6.2366071"
         height="18.364271"
         x="151.75743"
         y="153.8363" />
    </g>
    <g
       id="g853"
       transform="matrix(-0.04972687,0.04597157,0.04597157,0.04972687,2.8323588,-8.6870149)"
       style="stroke-width:14.7664">
      <path
         id="path841"
         style="fill:#000000;fill-opacity:1;fill-rule:nonzero;stroke-width:72.5533;stroke-miterlimit:4;stroke-dasharray:none;paint-order:markers stroke fill"
         d="m 259.55273,490.93359 a 84.852813,84.852813 0 0 0 -84.79687,84.85352 84.852813,84.852813 0 0 0 84.85352,84.85351 84.852813,84.852813 0 0 0 84.85351,-84.85351 84.852813,84.852813 0 0 0 -84.85351,-84.85352 84.852813,84.852813 0 0 0 -0.0566,0 z m 0.91797,32.73633 a 51.256263,51.256263 0 0 1 51.25586,51.25586 51.256263,51.256263 0 0 1 -51.25586,51.25586 51.256263,51.256263 0 0 1 -51.25586,-51.25586 51.256263,51.256263 0 0 1 51.25586,-51.25586 z"
         transform="scale(0.26458333)" />
      <rect
         y="145.12735"
         x="89.996948"
         height="10.423511"
         width="88.806366"
         id="rect843"
         style="fill:#000000;fill-opacity:1;fill-rule:nonzero;stroke-width:19.1964;stroke-miterlimit:4;stroke-dasharray:none;paint-order:markers stroke fill" />
      <ellipse
         ry="5.2117553"
         rx="5.4790254"
         cy="150.3391"
         cx="178.06833"
         id="ellipse845"
         style="fill:#000000;fill-opacity:1;fill-rule:nonzero;stroke-width:19.1964;stroke-miterlimit:4;stroke-dasharray:none;paint-order:markers stroke fill" />
      <rect
         y="153.08035"
         x="169.14433"
         height="19.166079"
         width="6.2366071"
         id="rect847"
         style="fill:#000000;fill-opacity:1;fill-rule:nonzero;stroke-width:19.1964;stroke-miterlimit:4;stroke-dasharray:none;paint-order:markers stroke fill" />
      <rect
         style="fill:#000000;fill-opacity:1;fill-rule:nonzero;stroke-width:19.1964;stroke-miterlimit:4;stroke-dasharray:none;paint-order:markers stroke fill"
         id="rect849"
         width="6.2366071"
         height="18.898809"
         x="160.45088"
         y="153.26933" />
      <rect
         y="153.8363"
         x="151.75743"
         height="18.364271"
         width="6.2366071"
         id="rect851"
         style="fill:#000000;fill-opacity:1;fill-rule:nonzero;stroke-width:19.1964;stroke-miterlimit:4;stroke-dasharray:none;paint-order:markers stroke fill" />
    </g>
    <path
       transform="scale(0.26458333)"
       id="path855"
       d="M 6.2335412,28.415702 C 5.4403576,27.557017 4.7780075,26.854456 4.761652,26.854456 c -0.016355,0 -0.149644,0.122164 -0.2961968,0.271477 -0.6499483,0.662188 -1.4461741,0.758215 -2.0187043,0.24346 C 2.167788,27.118582 2.029614,26.81549 2.0278686,26.450554 c -0.00215,-0.450523 0.150968,-0.776647 0.5291117,-1.126915 0.117394,-0.10874 2.7497161,-2.541807 5.8496045,-5.406817 3.0998882,-2.865009 5.6361612,-5.223612 5.6361612,-5.241339 0,-0.01773 -0.602929,-0.589675 -1.339843,-1.270995 l -1.339843,-1.238762 -0.346457,0.24277 C 9.7530893,13.293863 8.113466,13.647077 6.6513535,13.348876 4.2935569,12.867998 2.5127797,11.04654 2.0989182,8.6924438 2.0115915,8.1957184 2.0111749,7.253692 2.0980642,6.761142 2.4067124,5.0115021 3.5403793,3.4719183 5.1191248,2.6583706 5.9695817,2.2201194 6.7553124,2.0300086 7.729512,2.0267769 c 1.1083121,-0.00368 2.1663545,0.2999992 3.063494,0.8792739 1.34672,0.8695651 2.227435,2.164159 2.564625,3.7698332 0.107599,0.5123795 0.107981,1.5684299 7.63e-4,2.1092719 -0.06473,0.3265321 -0.270249,0.97975 -0.40793,1.2965711 -0.02119,0.04876 -0.01689,0.07488 0.01103,0.06696 0.02517,-0.0071 0.710646,0.599737 1.523268,1.348621 0.812622,0.748884 1.495462,1.361607 1.517422,1.361607 0.02196,0 0.708769,-0.617898 1.526241,-1.373105 1.077405,-0.995343 1.497466,-1.35766 1.52685,-1.316964 0.02623,0.03633 0.02883,0.02463 0.0074,-0.03315 C 18.672754,9.0866327 18.552142,8.5166019 18.551853,7.7216974 18.551302,6.201518 19.151604,4.7705444 20.245351,3.6848125 21.34721,2.5910279 22.714258,2.0275378 24.26596,2.0275378 c 1.547995,0 2.934073,0.5709921 4.019533,1.6558393 1.550783,1.5499072 2.085341,3.7726029 1.403313,5.8349841 -0.642348,1.9423958 -2.234823,3.3679248 -4.262132,3.8153158 -0.666415,0.147066 -1.655014,0.147066 -2.321428,0 -0.805302,-0.177716 -1.576599,-0.519632 -2.188754,-0.970274 l -0.274414,-0.202012 -0.230469,0.215793 c -0.126759,0.118687 -0.738871,0.685598 -1.36025,1.259802 -0.906014,0.837229 -1.118223,1.054624 -1.071429,1.097613 3.366988,3.09318 11.419812,10.546117 11.586513,10.723388 0.65022,0.691445 0.51915,1.682324 -0.278162,2.102893 -0.186823,0.09855 -0.281439,0.117853 -0.580357,0.118423 -0.448968,8.57e-4 -0.704498,-0.119158 -1.151467,-0.540806 l -0.309409,-0.29188 -0.151231,0.146579 c -0.08318,0.08062 -0.738777,0.783179 -1.456888,1.561245 l -1.305657,1.414665 -0.348339,-0.318486 c -0.191587,-0.175167 -0.44844,-0.408888 -0.570785,-0.519379 l -0.222445,-0.200893 1.448292,-1.5625 1.448291,-1.5625 -0.228835,-0.234375 c -0.125859,-0.128906 -0.239856,-0.234375 -0.253328,-0.234375 -0.01347,0 -0.664299,0.693081 -1.446283,1.540179 -0.781985,0.847098 -1.435979,1.540179 -1.453322,1.540179 -0.0257,0 -0.705731,-0.60911 -1.046344,-0.937223 -0.08102,-0.07805 -0.04148,-0.125756 1.350446,-1.629518 0.788651,-0.852013 1.431744,-1.562222 1.429096,-1.578241 -0.0026,-0.01602 -0.111206,-0.125743 -0.241239,-0.243832 l -0.236422,-0.214706 -1.442875,1.560901 -1.442876,1.560901 -0.24669,-0.218402 C 20.693935,26.596715 20.437185,26.362579 20.25906,26.196534 l -0.323864,-0.3019 1.447961,-1.5625 c 1.348418,-1.455083 1.442806,-1.567509 1.372971,-1.635364 -0.04124,-0.04008 -1.579692,-1.462789 -3.418774,-3.161585 l -3.343784,-3.088721 -0.249966,0.242511 c -0.137481,0.133381 -1.595948,1.483354 -3.241037,2.999939 -1.645089,1.516585 -3.0667688,2.830826 -3.1592876,2.920536 l -0.168216,0.163108 1.4454306,1.561038 1.445431,1.561038 -0.361734,0.334822 c -0.198953,0.184151 -0.454195,0.420051 -0.567203,0.524221 l -0.20547,0.189399 -1.4409051,-1.560965 -1.4409058,-1.560965 -0.2400879,0.205113 c -0.1320483,0.112813 -0.240088,0.224039 -0.240088,0.247171 0,0.02313 0.6422661,0.736313 1.4272585,1.584848 l 1.4272583,1.542791 -0.344669,0.318211 C 9.8898107,27.894296 9.6362562,28.129753 9.5159241,28.242518 L 9.2971388,28.447544 8.1571964,27.215732 C 7.5302281,26.538235 6.8799999,25.835856 6.7122446,25.65489 L 6.4072352,25.32586 6.1736511,25.54242 c -0.1284713,0.119107 -0.238454,0.226993 -0.2444059,0.239744 -0.00595,0.01275 0.6381056,0.725247 1.4312396,1.583325 l 1.4420611,1.56014 -0.3145901,0.292538 C 8.3149312,29.379063 8.0613892,29.61561 7.9245294,29.743827 L 7.6756928,29.97695 Z M 8.6856026,11.113589 C 9.5269196,10.898182 10.287199,10.344588 10.768019,9.5972889 11.613262,8.2835974 11.448128,6.5056849 10.374242,5.3576983 9.6738312,4.6089566 8.8516705,4.2552739 7.8150669,4.2567746 7.1554674,4.2577295 6.752604,4.354207 6.1857972,4.6469513 5.3364969,5.0855977 4.6803965,5.9063504 4.4478724,6.8210188 4.2130506,7.7447251 4.3457981,8.7403358 4.807689,9.5196523 c 0.293806,0.4957187 0.9166234,1.0738367 1.4448779,1.3411797 0.6900389,0.349221 1.6619357,0.450186 2.4330357,0.252757 z m 16.1160714,0.05213 c 0.738039,-0.133626 1.310414,-0.437696 1.852679,-0.984223 C 27.390757,9.4393032 27.686659,8.6605286 27.647092,7.5687411 27.630694,7.1162693 27.604026,6.9431447 27.506121,6.6535626 27.208247,5.7725168 26.607618,5.0537801 25.834159,4.652822 24.052229,3.7290766 21.896417,4.4288598 21.045814,6.207134 c -0.27133,0.5672451 -0.32916,0.844187 -0.326276,1.5625 0.0023,0.5846634 0.01184,0.6522152 0.147079,1.0466871 0.577147,1.6834589 2.214353,2.6609409 3.935057,2.3493979 z"
       style="fill:#ffffff;stroke:#ffffff;stroke-width:0.377953;paint-order:markers stroke fill" />
  </g>
</svg>
