<?xml version="1.0" encoding="UTF-8" standalone="no"?>
<svg
   xmlns:dc="http://purl.org/dc/elements/1.1/"
   xmlns:cc="http://creativecommons.org/ns#"
   xmlns:rdf="http://www.w3.org/1999/02/22-rdf-syntax-ns#"
   xmlns:svg="http://www.w3.org/2000/svg"
   xmlns="http://www.w3.org/2000/svg"
   xmlns:sodipodi="http://sodipodi.sourceforge.net/DTD/sodipodi-0.dtd"
   xmlns:inkscape="http://www.inkscape.org/namespaces/inkscape"
   width="32"
   height="32"
   viewBox="0 0 8.4666667 8.4666667"
   version="1.1"
   id="svg8"
   inkscape:version="1.0 (4035a4fb49, 2020-05-01)"
   sodipodi:docname="Planner Icon.svg">
  <defs
     id="defs2" />
  <sodipodi:namedview
     units="px"
     inkscape:pagecheckerboard="true"
     id="base"
     pagecolor="#ffffff"
     bordercolor="#666666"
     borderopacity="1.0"
     inkscape:pageopacity="0.0"
     inkscape:pageshadow="2"
     inkscape:zoom="31.678384"
     inkscape:cx="19.206562"
     inkscape:cy="16.586838"
     inkscape:document-units="mm"
     inkscape:current-layer="layer1"
     inkscape:document-rotation="0"
     showgrid="false"
     inkscape:window-width="2400"
     inkscape:window-height="1271"
     inkscape:window-x="2391"
     inkscape:window-y="-9"
     inkscape:window-maximized="1" />
  <metadata
     id="metadata5">
    <rdf:RDF>
      <cc:Work
         rdf:about="">
        <dc:format>image/svg+xml</dc:format>
        <dc:type
           rdf:resource="http://purl.org/dc/dcmitype/StillImage" />
        <dc:title></dc:title>
      </cc:Work>
    </rdf:RDF>
  </metadata>
  <g
     inkscape:label="Layer 1"
     inkscape:groupmode="layer"
     id="layer1">
    <g
       style="stroke-width:0.05;stroke-miterlimit:4;stroke-dasharray:none;stroke:#9e9e9e;stroke-opacity:1"
       transform="translate(-0.16232427,0.05280969)"
       id="g854">
      <g
         id="g866"
         transform="matrix(0.05119142,0,0,0.05016096,-0.95070379,-3.5325186)"
         style="stroke-width:0.98670766;stroke-miterlimit:4;stroke-dasharray:none;stroke:#9e9e9e;stroke-opacity:1">
        <g
           id="g843"
           style="stroke-width:0.98670766;stroke-miterlimit:4;stroke-dasharray:none;stroke:#9e9e9e;stroke-opacity:1">
          <path
             sodipodi:nodetypes="ccccc"
             id="path833"
             d="m 30.662115,86.980714 c 27.665774,-0.09051 55.398367,6.367078 73.776525,19.773676 l 0.0236,113.00323 C 83.787023,206.82869 56.175931,203.00206 30.657035,200.46037 V 86.872102"
             style="fill:none;stroke:#9e9e9e;stroke-width:0.98670766;stroke-linecap:butt;stroke-linejoin:miter;stroke-miterlimit:4;stroke-dasharray:none;stroke-opacity:1" />
        </g>
        <path
           style="fill:none;stroke:#9e9e9e;stroke-width:0.98670766;stroke-linecap:butt;stroke-linejoin:miter;stroke-miterlimit:4;stroke-dasharray:none;stroke-opacity:1"
           d="M 104.43899,220.23032 H 27.214282 V 94.683292 h 1.181184"
           id="path845"
           sodipodi:nodetypes="cccc" />
        <g
           id="g849"
           transform="translate(-2.2678571,3.5907738)"
           style="stroke-width:0.98670766;stroke-miterlimit:4;stroke-dasharray:none;stroke:#9e9e9e;stroke-opacity:1">
          <path
             style="fill:none;stroke:#9e9e9e;stroke-width:0.98670766;stroke-linecap:butt;stroke-linejoin:miter;stroke-miterlimit:4;stroke-dasharray:none;stroke-opacity:1"
             d="m 30.662115,86.980714 c 0.764454,-0.0025 1.528959,-2e-6 2.293317,0.0075 M 106.7065,216.63932 C 86.031277,203.71039 56.175931,203.00206 30.657035,200.46037 V 86.872102"
             id="path847"
             sodipodi:nodetypes="ccccc" />
        </g>
      </g>
      <g
         transform="matrix(-0.05119142,0,0,0.05016096,9.742019,-3.5325186)"
         id="g878"
         style="stroke-width:0.98670766;stroke-miterlimit:4;stroke-dasharray:none;stroke:#9e9e9e;stroke-opacity:1">
        <g
           style="stroke-width:0.98670766;stroke-miterlimit:4;stroke-dasharray:none;stroke:#9e9e9e;stroke-opacity:1"
           id="g870">
          <path
             style="fill:none;stroke:#9e9e9e;stroke-width:0.98670766;stroke-linecap:butt;stroke-linejoin:miter;stroke-miterlimit:4;stroke-dasharray:none;stroke-opacity:1"
             d="m 30.662115,86.980714 c 27.665774,-0.09051 55.398367,6.367078 73.776525,19.773676 l -0.0236,113.00323 C 83.739799,206.82869 56.175931,203.00206 30.657035,200.46037 V 86.872102"
             id="path868"
             sodipodi:nodetypes="ccccc" />
        </g>
        <path
           sodipodi:nodetypes="cccc"
           id="path872"
           d="M 104.43899,220.23032 H 27.214282 V 94.683292 h 1.181184"
           style="fill:none;stroke:#9e9e9e;stroke-width:0.98670766;stroke-linecap:butt;stroke-linejoin:miter;stroke-miterlimit:4;stroke-dasharray:none;stroke-opacity:1" />
        <g
           style="stroke-width:0.98670766;stroke-miterlimit:4;stroke-dasharray:none;stroke:#9e9e9e;stroke-opacity:1"
           transform="translate(-2.2678571,3.5907738)"
           id="g876">
          <path
             sodipodi:nodetypes="ccccc"
             id="path874"
             d="m 30.662115,86.980714 c 0.764454,-0.0025 1.528959,-2e-6 2.293317,0.0075 M 106.7065,216.63932 C 86.031277,203.71039 56.175931,203.00206 30.657035,200.46037 V 86.872102"
             style="fill:none;stroke:#9e9e9e;stroke-width:0.98670766;stroke-linecap:butt;stroke-linejoin:miter;stroke-miterlimit:4;stroke-dasharray:none;stroke-opacity:1" />
        </g>
      </g>
    </g>
    <path
       transform="scale(0.26458333)"
       id="path856"
       d="M 15.607894,28.152569 C 15.207283,27.916066 14.419586,27.526695 13.840011,27.278676 10.968669,26.049937 7.4882814,25.310783 2.0576445,24.776373 L 1.8445654,24.755405 V 14.10513 3.4548545 l 0.5129681,2.042e-4 C 3.6605153,3.4555772 5.5502684,3.615859 7.0215972,3.850647 10.341918,4.3804889 13.353472,5.4573499 15.48848,6.8782059 l 0.387736,0.2580397 0.0079,10.5810244 c 0.0044,5.819563 -0.0027,10.579684 -0.01578,10.578046 -0.01305,-0.0016 -0.130261,-0.06587 -0.260476,-0.142747 z"
       style="fill:#ffffff;stroke:#9e9e9e;stroke-width:0.188977;stroke-miterlimit:4;stroke-dasharray:none;stroke-opacity:1;paint-order:markers stroke fill" />
    <path
       transform="scale(0.26458333)"
       id="path858"
       d="m 16.120815,17.715367 0.0079,-10.5829259 0.336818,-0.2246699 c 0.567766,-0.3787218 0.957575,-0.5996966 1.746621,-0.990126 1.919971,-0.9500241 4.050123,-1.6094339 6.57736,-2.0360872 1.460303,-0.2465314 3.504024,-0.4259605 4.857883,-0.4264994 l 0.512968,-2.041e-4 V 14.108807 c 0,10.195188 -0.0024,10.653953 -0.05621,10.653953 -0.106898,0 -1.856527,0.190887 -2.627011,0.286611 -4.907455,0.609696 -8.408534,1.584875 -11.028915,3.071958 -0.171505,0.09733 -0.31713,0.176965 -0.323611,0.176965 -0.0065,0 -0.0082,-4.762317 -0.0038,-10.582927 z"
       style="fill:#ffffff;stroke:#9e9e9e;stroke-width:0.188977;stroke-miterlimit:4;stroke-dasharray:none;stroke-opacity:1;paint-order:markers stroke fill" />
    <path
       transform="scale(0.26458333)"
       id="path860"
       d="m 20.374551,26.704332 c 0.404815,-0.135345 1.536018,-0.444713 2.130791,-0.582741 1.639549,-0.380486 3.497435,-0.685721 5.761026,-0.946489 0.458227,-0.05279 2.063499,-0.222939 2.103297,-0.222939 0.0064,0 0.01171,-4.687739 0.01171,-10.417198 V 4.1177671 h 0.110485 0.110486 V 14.770289 25.422811 l -0.102594,0.01783 c -0.05643,0.0098 -0.919397,0.08853 -1.917711,0.174944 -4.138879,0.358263 -5.92528,0.592649 -7.718197,1.012672 -0.676814,0.158555 -0.787419,0.175753 -0.489293,0.07608 z"
       style="fill:#ffffff;stroke:#9e9e9e;stroke-width:0.188977;stroke-miterlimit:4;stroke-dasharray:none;stroke-opacity:1;paint-order:markers stroke fill" />
    <path
       transform="scale(0.26458333)"
       id="path862"
       d="M 11.646202,26.748662 C 11.367535,26.663398 10.183968,26.419144 9.4522768,26.295898 7.9503046,26.042907 6.4341319,25.873109 3.2335252,25.59945 2.3046583,25.52003 1.5127145,25.448169 1.47365,25.43976 L 1.4026237,25.42447 V 14.771118 4.1177671 H 1.5131091 1.6235945 V 14.534965 c 0,5.729459 0.00527,10.417198 0.01171,10.417198 0.047868,0 1.6829253,0.174743 2.2295664,0.23828 3.1944688,0.371298 5.8840414,0.896139 7.8128981,1.524606 0.184955,0.06026 0.156066,0.09102 -0.03157,0.03361 z"
       style="fill:#ffffff;stroke:#9e9e9e;stroke-width:0.188977;stroke-miterlimit:4;stroke-dasharray:none;stroke-opacity:1;paint-order:markers stroke fill" />
    <path
       transform="scale(0.26458333)"
       id="path864"
       d="m 1.1816528,27.06717 v -1.420527 h 0.091357 c 0.050246,0 0.2313636,0.01406 0.4024826,0.03124 0.1711191,0.01718 1.0497997,0.09532 1.9526235,0.173648 3.4441858,0.298808 4.9806209,0.488166 6.6632221,0.821212 1.908447,0.377748 3.330208,0.833503 4.690311,1.50351 0.309711,0.152568 0.56311,0.285057 0.56311,0.294421 0,0.0094 -3.231699,0.01703 -7.181553,0.01703 H 1.1816528 Z"
       style="fill:#ffffff;stroke:#9e9e9e;stroke-width:0.188977;stroke-miterlimit:4;stroke-dasharray:none;stroke-opacity:1;paint-order:markers stroke fill" />
    <path
       transform="scale(0.26458333)"
       id="path866"
       d="m 16.431273,28.474983 c 0.04268,-0.04126 1.101598,-0.55084 1.396934,-0.672246 2.196611,-0.902975 4.611818,-1.396933 8.765096,-1.792638 0.799135,-0.07614 4.091688,-0.363456 4.165062,-0.363456 0.06459,0 0.06495,0.0078 0.06495,1.420527 v 1.420527 h -7.202599 c -3.961428,0 -7.196679,-0.0057 -7.189445,-0.01271 z"
       style="fill:#ffffff;stroke:#9e9e9e;stroke-width:0.188977;stroke-miterlimit:4;stroke-dasharray:none;stroke-opacity:1;paint-order:markers stroke fill" />
  </g>
</svg>
