<?xml version="1.0" encoding="UTF-8" standalone="no"?>
<svg
   xmlns:dc="http://purl.org/dc/elements/1.1/"
   xmlns:cc="http://creativecommons.org/ns#"
   xmlns:rdf="http://www.w3.org/1999/02/22-rdf-syntax-ns#"
   xmlns:svg="http://www.w3.org/2000/svg"
   xmlns="http://www.w3.org/2000/svg"
   xmlns:sodipodi="http://sodipodi.sourceforge.net/DTD/sodipodi-0.dtd"
   xmlns:inkscape="http://www.inkscape.org/namespaces/inkscape"
   sodipodi:docname="Profile Logo.svg"
   inkscape:version="1.0 (4035a4fb49, 2020-05-01)"
   id="svg8"
   version="1.1"
   viewBox="0 0 8.4666667 8.4666667"
   height="32"
   width="32">
  <defs
     id="defs2" />
  <sodipodi:namedview
     inkscape:pagecheckerboard="true"
     inkscape:window-maximized="1"
     inkscape:window-y="-9"
     inkscape:window-x="2391"
     inkscape:window-height="1271"
     inkscape:window-width="2400"
     showgrid="false"
     inkscape:document-rotation="0"
     inkscape:current-layer="layer1"
     inkscape:document-units="mm"
     inkscape:cy="16.33649"
     inkscape:cx="13.79891"
     inkscape:zoom="22.627417"
     inkscape:pageshadow="2"
     inkscape:pageopacity="0"
     borderopacity="1.0"
     bordercolor="#666666"
     pagecolor="#000000"
     id="base"
     units="px" />
  <metadata
     id="metadata5">
    <rdf:RDF>
      <cc:Work
         rdf:about="">
        <dc:format>image/svg+xml</dc:format>
        <dc:type
           rdf:resource="http://purl.org/dc/dcmitype/StillImage" />
        <dc:title></dc:title>
      </cc:Work>
    </rdf:RDF>
  </metadata>
  <g
     id="layer1"
     inkscape:groupmode="layer"
     inkscape:label="Layer 1">
    <path
       d="M 4.2114191,-0.0032815 A 2.6933669,2.1400547 0 0 0 1.518074,2.1367805 2.6933669,2.1400547 0 0 0 2.5277826,3.8071567 3.218901,5.4980168 0 0 0 1.014432,8.4699482 H 7.4522347 A 3.218901,5.4980168 0 0 0 5.9223283,3.7896028 2.6933669,2.1400547 0 0 0 6.9047933,2.1367805 2.6933669,2.1400547 0 0 0 4.2114191,-0.0032815 Z m -0.00664,0.20107549 a 2.4041462,1.9389757 0 0 1 0.00664,0 A 2.4041462,1.9389757 0 0 1 6.6155652,2.1367805 2.4041462,1.9389757 0 0 1 4.2114191,4.0757661 2.4041462,1.9389757 0 0 1 1.8072721,2.1367805 2.4041462,1.9389757 0 0 1 4.204773,0.19779399 Z M 5.5867282,3.9767858 A 2.8575958,4.8617187 0 0 1 7.1018754,8.2686121 H 1.3867072 A 2.8575958,4.8617187 0 0 1 2.87979,3.996958 2.6933669,2.1400547 0 0 0 4.2114191,4.2768416 2.6933669,2.1400547 0 0 0 5.5867266,3.9767858 Z"
       style="fill:#000000;stroke-width:0.00091006;paint-order:markers stroke fill;stroke:#ffffff;stroke-opacity:1;stroke-miterlimit:4;stroke-dasharray:none"
       id="path837" />
    <path
       transform="scale(0.26458333)"
       id="path838"
       d="m 5.2529284,31.04786 c 0.00259,-0.501438 0.09549,-2.139256 0.1563573,-2.756696 0.5243262,-5.318801 2.3262278,-9.862399 5.0407683,-12.710586 l 0.416243,-0.436736 0.217378,0.08627 c 1.049464,0.416477 2.305152,0.742846 3.387022,0.880331 0.570623,0.07251 2.320419,0.07203 2.901785,-8.04e-4 1.139605,-0.14277 2.402041,-0.472045 3.320893,-0.866172 l 0.422381,-0.181173 0.518082,0.531847 c 2.648878,2.719266 4.495451,7.330161 5.022333,12.540777 0.08876,0.877806 0.157809,2.023489 0.158068,2.622768 l 2.08e-4,0.47991 H 16.033197 5.2519466 Z"
       style="fill:#ffffff;stroke:#ffffff;stroke-width:0.00188976;stroke-miterlimit:4;stroke-dasharray:none;stroke-opacity:1;paint-order:markers stroke fill" />
    <path
       transform="scale(0.26458333)"
       id="path840"
       d="M 14.984089,15.343583 C 11.105758,14.976434 7.9820362,12.754012 7.103944,9.7371267 6.3121806,7.0168432 7.5145866,4.1820628 10.209766,2.4148713 c 1.123183,-0.7364548 2.39994,-1.2243107 3.926084,-1.50017801 0.492089,-0.0889506 0.703192,-0.10078001 1.785739,-0.10006613 1.082421,7.1379e-4 1.295465,0.012946 1.800586,0.10338282 2.530667,0.45309012 4.642966,1.65354482 5.927542,3.36871942 1.72052,2.2972499 1.763574,5.0870441 0.114658,7.4295566 -0.34662,0.492421 -1.17822,1.332044 -1.704393,1.720834 -1.266922,0.936133 -2.847233,1.569342 -4.545756,1.821426 -0.682659,0.101315 -1.919181,0.142874 -2.530137,0.08504 z"
       style="fill:#ffffff;stroke:#ffffff;stroke-width:0.00188976;stroke-miterlimit:4;stroke-dasharray:none;stroke-opacity:1;paint-order:markers stroke fill" />
    <path
       transform="scale(0.26458333)"
       id="path842"
       d="M 15.444183,15.388822 C 13.490533,15.304149 11.634672,14.719869 10.129044,13.715458 9.6249671,13.379186 9.2169544,13.04278 8.8032193,12.622317 8.5392397,12.354044 8.3573474,12.14295 8.1394403,11.851973 7.4196194,10.890777 6.9803202,9.7924582 6.8665809,8.6696206 6.8247401,8.2565682 6.8304976,7.7498422 6.8816002,7.3477413 c 0.026895,-0.2116213 0.0459,-0.3156726 0.057659,-0.3156726 0.00886,0 0.010319,0.0067 0.00646,0.029594 -0.064478,0.3824915 -0.088026,0.7031508 -0.081473,1.1094281 0.00702,0.4348778 0.044766,0.7614401 0.1360883,1.1772258 0.5435853,2.4749184 2.6176996,4.5367204 5.5238765,5.4910864 0.820026,0.26929 1.737853,0.453449 2.592462,0.520168 0.171616,0.0134 1.024605,0.01328 1.28242,-1.73e-4 0.594262,-0.03102 0.928284,-0.06355 1.314623,-0.128028 1.418328,-0.236721 2.744516,-0.737219 3.873662,-1.461904 0.52914,-0.339601 0.876137,-0.627064 1.413353,-1.170869 0.425825,-0.431047 0.655225,-0.704033 0.887694,-1.056354 0.126386,-0.191548 0.204327,-0.32014 0.301346,-0.497181 0.05974,-0.109008 0.07352,-0.129454 0.07352,-0.109067 0,0.04203 -0.168981,0.335144 -0.34908,0.605507 -0.275241,0.413191 -0.554062,0.750834 -0.93291,1.129726 -0.563514,0.563581 -1.167539,1.016668 -1.905591,1.429411 -0.202103,0.113023 -0.616085,0.318299 -0.825408,0.409286 -1.217448,0.52919 -2.503206,0.820149 -3.886608,0.879516 -0.209315,0.009 -0.705689,0.0086 -0.919508,-6.15e-4 z"
       style="fill:#ffffff;stroke:#ffffff;stroke-width:0.00188976;stroke-miterlimit:4;stroke-dasharray:none;stroke-opacity:1;paint-order:markers stroke fill" />
    <path
       transform="scale(0.26458333)"
       id="path844"
       d=""
       style="fill:#ffffff;stroke:#ffffff;stroke-width:0.00188976;stroke-miterlimit:4;stroke-dasharray:none;stroke-opacity:1;paint-order:markers stroke fill" />
  </g>
</svg>
